<svg xmlns="http://www.w3.org/2000/svg" viewBox="0 0 32 32">
  <path fill="#25D366" d="M16.003 2.003A13.91 13.91 0 0 0 2 15.913c0 2.45.64 4.84 1.858 6.945L2 30l7.316-1.81A13.94 13.94 0 0 0 16.003 29.9a13.91 13.91 0 0 0 13.997-13.907A13.91 13.91 0 0 0 16.003 2.003z"/>
  <path fill="#fff" d="M23.06 19.4c-.348-.173-2.06-1.014-2.38-1.13-.32-.117-.553-.173-.786.174-.232.347-.902 1.13-1.107 1.363-.204.232-.407.26-.755.086-.347-.174-1.465-.539-2.791-1.717a10.38 10.38 0 0 1-1.927-2.38c-.204-.347-.021-.535.153-.708.157-.156.347-.407.52-.61.173-.204.232-.347.348-.579.116-.232.058-.434-.028-.61-.087-.174-.786-1.893-1.078-2.589-.283-.68-.573-.589-.786-.589-.202-.018-.434-.018-.667-.018-.233 0-.61.087-.929.434-.319.347-1.22 1.19-1.22 2.9 0 1.71 1.249 3.363 1.422 3.595.173.232 2.457 3.76 5.96 5.267.835.36 1.484.574 1.99.734.837.267 1.6.23 2.2.14.67-.1 2.06-.841 2.351-1.654.29-.812.29-1.509.202-1.654-.086-.145-.317-.232-.665-.406z"/>
</svg>

